<?xml version="1.0" encoding="utf-8"?>
<!-- Generator: Adobe Illustrator 25.0.1, SVG Export Plug-In . SVG Version: 6.00 Build 0)  -->
<svg version="1.1" id="Layer_1" xmlns="http://www.w3.org/2000/svg" xmlns:xlink="http://www.w3.org/1999/xlink" x="0px" y="0px"
	 viewBox="0 0 50 50" style="enable-background:new 0 0 50 50;" xml:space="preserve">
<path id="Round-Mail" d="M25,49.21c-3.24,0.01-6.44-0.64-9.42-1.9c-2.88-1.22-5.49-2.98-7.7-5.19c-2.21-2.21-3.97-4.82-5.19-7.7
	c-1.26-2.98-1.91-6.19-1.9-9.42c-0.01-3.24,0.64-6.44,1.9-9.42c1.22-2.88,2.98-5.49,5.19-7.7c2.21-2.21,4.82-3.97,7.7-5.19
	c2.98-1.26,6.19-1.91,9.42-1.9c3.24-0.01,6.44,0.64,9.42,1.9c2.88,1.21,5.49,2.98,7.7,5.19c2.21,2.21,3.97,4.82,5.19,7.7
	c1.26,2.98,1.91,6.19,1.9,9.42c0.01,3.24-0.64,6.44-1.9,9.42c-1.22,2.88-2.98,5.49-5.19,7.7c-2.21,2.21-4.82,3.97-7.7,5.19
	C31.44,48.57,28.24,49.22,25,49.21z M12.6,14.9c-1.43,0-2.59,1.16-2.59,2.59v15.56c0,1.43,1.16,2.59,2.59,2.59h24.33
	c1.43,0,2.59-1.16,2.59-2.59V17.49c0-1.43-1.16-2.59-2.59-2.59L12.6,14.9z M36.56,33.92h-23.6l7.47-7.42l1.27,1.26
	c0.81,0.81,1.91,1.27,3.06,1.27c1.15,0,2.25-0.45,3.06-1.26l1.27-1.27L36.56,33.92L36.56,33.92z M37.79,32.71L37.79,32.71
	l-7.47-7.42l7.47-7.43L37.79,32.71L37.79,32.71z M11.74,32.71V17.85l7.47,7.43L11.74,32.71L11.74,32.71z M24.77,27.3
	c-0.69,0-1.35-0.27-1.84-0.76l-4.45-4.44l-1.9-1.89l-3.61-3.58h23.6l-2.66,2.65l-0.01,0.01l-2.54,2.52l-4.76,4.73
	C26.12,27.03,25.46,27.31,24.77,27.3L24.77,27.3z"/>
</svg>
