<?xml version="1.0" encoding="utf-8"?>
<!-- Generator: Adobe Illustrator 25.0.1, SVG Export Plug-In . SVG Version: 6.00 Build 0)  -->
<svg version="1.1" id="Layer_1" xmlns="http://www.w3.org/2000/svg" xmlns:xlink="http://www.w3.org/1999/xlink" x="0px" y="0px"
	 viewBox="0 0 50 50" style="enable-background:new 0 0 50 50;" xml:space="preserve">
<g id="Behance" transform="translate(-5 -5)">
	<path id="Round-Behance" d="M30,54.21c-3.24,0.01-6.44-0.64-9.42-1.9c-2.88-1.22-5.49-2.98-7.7-5.19c-2.21-2.21-3.97-4.82-5.19-7.7
		c-1.26-2.98-1.91-6.19-1.9-9.42c-0.01-3.24,0.64-6.44,1.9-9.42c1.22-2.88,2.98-5.49,5.19-7.7c2.21-2.21,4.82-3.97,7.7-5.19
		c2.98-1.26,6.19-1.91,9.42-1.9c3.24-0.01,6.44,0.64,9.42,1.9c2.88,1.21,5.49,2.98,7.7,5.19c2.21,2.21,3.97,4.82,5.19,7.7
		c1.26,2.98,1.91,6.19,1.9,9.42c0.01,3.24-0.64,6.44-1.9,9.42c-1.22,2.88-2.98,5.49-5.19,7.7c-2.21,2.21-4.82,3.97-7.7,5.19
		C36.44,53.57,33.24,54.22,30,54.21z M37.7,25.54c-1.94,0.02-3.78,0.84-5.11,2.26c-1.08,1.05-1.69,2.48-1.71,3.98
		c-0.15,1.85,0.49,3.68,1.76,5.04c1.31,1.4,3.14,2.2,5.05,2.2c2.43,0,4.68-1.28,5.92-3.36c0.17-0.27,0.18-0.61,0.03-0.88
		c-0.18-0.3-0.5-0.48-0.84-0.49c-0.31,0-0.6,0.18-0.75,0.45c-0.91,1.54-2.57,2.47-4.36,2.47c-1.26,0-2.48-0.47-3.41-1.33
		c-0.92-0.84-1.48-2-1.58-3.24h0.22c0.5,0,1.1-0.02,1.86-0.04h0.01l0.63-0.02c1.03-0.03,2.3-0.06,3.85-0.06
		c1.41,0,2.82,0.02,4.3,0.07c0.01,0,0.02,0,0.03,0c0.01,0,0.02,0,0.02,0c0.58-0.03,0.91-0.47,0.9-1.21
		c-0.16-1.41-0.81-2.71-1.84-3.68C41.39,26.33,39.59,25.55,37.7,25.54z M16.38,20.87c-0.5,0-0.91,0.41-0.91,0.91v16.33
		c0,0.5,0.41,0.91,0.91,0.91h8.58c1.25,0.02,2.46-0.4,3.42-1.19c0.87-0.73,1.48-1.72,1.75-2.82c0.28-1.08,0.21-2.23-0.2-3.27
		c-0.47-1.14-1.33-2.07-2.42-2.64c0.75-0.64,1.28-1.51,1.5-2.48c0.2-0.89,0.13-1.83-0.19-2.68c-0.32-0.87-0.89-1.62-1.64-2.17
		c-0.82-0.59-1.8-0.9-2.81-0.89L16.38,20.87z M34.15,22.03c-0.48-0.02-0.88,0.36-0.9,0.84c0,0.02,0,0.04,0,0.07
		c-0.02,0.48,0.35,0.89,0.83,0.91c0.02,0,0.04,0,0.07,0h7.1c0.48,0.02,0.88-0.36,0.9-0.84c0-0.02,0-0.04,0-0.07
		c0.02-0.48-0.35-0.89-0.83-0.91c-0.02,0-0.04,0-0.07,0H34.15z M24.96,37.2h-7.67v-6.93h7.67c0.99-0.04,1.95,0.36,2.63,1.08
		c0.57,0.66,0.88,1.51,0.87,2.38c0.01,0.87-0.3,1.72-0.87,2.38C26.91,36.84,25.96,37.24,24.96,37.2L24.96,37.2z M39.42,30.84
		c-1.55,0-2.84-0.03-3.9-0.06l-0.59-0.02h-0.04c-0.77-0.02-1.38-0.04-1.89-0.04h-0.05c0.34-1.04,1.01-1.93,1.92-2.54
		c0.84-0.55,1.83-0.85,2.83-0.84c2.19-0.05,4.14,1.36,4.79,3.45C41.44,30.84,40.41,30.85,39.42,30.84L39.42,30.84z M24.37,28.45
		h-7.08v-5.77h7.08c0.83-0.03,1.62,0.3,2.19,0.9c0.48,0.55,0.74,1.25,0.73,1.98c0.01,0.73-0.25,1.43-0.73,1.98
		C25.99,28.15,25.2,28.48,24.37,28.45L24.37,28.45z"/>
</g>
</svg>
