<?xml version="1.0" encoding="utf-8"?>
<!-- Generator: Adobe Illustrator 25.0.1, SVG Export Plug-In . SVG Version: 6.00 Build 0)  -->
<svg version="1.1" id="Layer_1" xmlns="http://www.w3.org/2000/svg" xmlns:xlink="http://www.w3.org/1999/xlink" x="0px" y="0px"
	 viewBox="0 0 50 50" style="enable-background:new 0 0 50 50;" xml:space="preserve">
<g id="Whatsapp" transform="translate(-5 -5)">
	<path id="Round-whatsapp" d="M30,54.21c-3.24,0.01-6.44-0.64-9.42-1.9c-2.88-1.22-5.49-2.98-7.7-5.19
		c-2.21-2.21-3.97-4.82-5.19-7.7c-1.26-2.98-1.91-6.19-1.9-9.42c-0.01-3.24,0.64-6.44,1.9-9.42c1.22-2.88,2.98-5.49,5.19-7.7
		c2.21-2.21,4.82-3.97,7.7-5.19c2.98-1.26,6.19-1.91,9.42-1.9c3.24-0.01,6.44,0.64,9.42,1.9c2.88,1.22,5.49,2.98,7.7,5.19
		c2.21,2.21,3.97,4.82,5.19,7.7c1.26,2.98,1.91,6.19,1.9,9.42c0.01,3.24-0.64,6.44-1.9,9.42c-1.22,2.88-2.98,5.49-5.19,7.7
		c-2.21,2.21-4.82,3.97-7.7,5.19C36.44,53.57,33.24,54.22,30,54.21z M21.88,42.76L21.88,42.76c2.37,1.42,5.08,2.18,7.84,2.17
		c8.4-0.01,15.2-6.82,15.21-15.21c-0.01-8.4-6.82-15.21-15.22-15.21c-8.4,0.01-15.2,6.82-15.21,15.21c0,2.85,0.8,5.64,2.3,8.05
		c-0.6,2.1-1.69,6.1-1.7,6.13c-0.06,0.21,0,0.43,0.16,0.57c0.11,0.11,0.26,0.17,0.41,0.16c0.06,0,0.12-0.01,0.17-0.03L21.88,42.76
		L21.88,42.76z M29.72,43.76c-2.63,0-5.22-0.74-7.45-2.14c-0.09-0.06-0.2-0.09-0.31-0.09c-0.06,0-0.12,0.01-0.17,0.03l-5.27,1.62
		l0.11-0.42c0.29-1.05,0.96-3.5,1.37-4.92c0.05-0.16,0.02-0.34-0.07-0.48c-1.48-2.27-2.26-4.93-2.26-7.64
		c0.01-7.75,6.29-14.03,14.04-14.04c7.75,0.01,14.03,6.29,14.04,14.04C43.76,37.47,37.47,43.76,29.72,43.76L29.72,43.76z
		 M23.81,20.23c-0.41,0.01-0.83,0.06-1.23,0.14c-0.11,0.02-0.22,0.08-0.3,0.16c-0.14,0.14-3.47,3.54-1.89,7.65
		c1.74,4.51,6.19,9.76,11.87,10.61c0.6,0.09,1.21,0.14,1.82,0.14c3.34,0,5.31-1.69,5.87-5.02c0.04-0.24-0.07-0.49-0.29-0.61
		c-1.07-0.6-1.99-1.19-2.66-1.63l-0.01-0.01l-0.01-0.01c-0.51-0.33-0.87-0.57-1.14-0.7c-0.23-0.12-0.49-0.19-0.75-0.19
		c-0.3-0.01-0.59,0.1-0.81,0.3c-0.03,0.03-0.05,0.06-0.07,0.09c-0.55,0.92-1.27,1.73-2.12,2.37c-1.31-0.59-2.52-1.37-3.6-2.32
		c-1.66-1.38-2.69-2.69-2.85-3.6c1.05-1.08,1.44-1.78,1.44-2.56c0-0.8-1.88-4.16-2.22-4.51C24.57,20.3,24.19,20.19,23.81,20.23
		L23.81,20.23z M34.11,37.76L34.11,37.76c-0.56,0-1.12-0.05-1.67-0.14c-6-0.9-9.79-6.85-10.95-9.87C21,26.45,21.04,25,21.61,23.72
		c0.34-0.82,0.81-1.57,1.39-2.24c0.29-0.05,0.59-0.08,0.89-0.09c0.06,0,0.13,0,0.19,0.01c0.73,1.15,1.34,2.36,1.84,3.63
		c0,0.31-0.1,0.73-1.29,1.93c-0.11,0.11-0.17,0.26-0.17,0.41c0,3.06,6.46,7.31,7.61,7.31c1.01,0,2.33-1.73,3.03-2.76
		c0.08,0.01,0.15,0.03,0.22,0.07c0.21,0.1,0.57,0.34,1.03,0.64l0.02,0.01c0.6,0.39,1.41,0.92,2.36,1.47
		C38.4,35.68,37.56,37.76,34.11,37.76L34.11,37.76z"/>
</g>
</svg>
